<svg width="200" height="200" viewBox="0 0 200 200" xmlns="http://www.w3.org/2000/svg">
  <title>Inkling</title>
  <defs>
    <linearGradient id="ink" x1="0" y1="0" x2="0" y2="1">
      <stop offset="0" stop-color="#2D3A8C"/>
      <stop offset="1" stop-color="#1E2A6B"/>
    </linearGradient>
  </defs>

  <rect x="0" y="0" width="200" height="200" rx="44" fill="url(#ink)"/>

  <!-- Inky, the mascot — same droplet body as <Inky />, with the face kept. -->
  <g transform="translate(35.2, 19) scale(1.08)">
    <path
      d="M60 10 C 90 45, 105 70, 105 95 C 105 120, 85 140, 60 140 C 35 140, 15 120, 15 95 C 15 70, 30 45, 60 10 Z"
      fill="#FFF6EC"/>

    <ellipse cx="30" cy="108" rx="8" ry="4.5" fill="#F4886A" opacity="0.75"/>
    <ellipse cx="90" cy="108" rx="8" ry="4.5" fill="#F4886A" opacity="0.75"/>

    <circle cx="42" cy="95" r="9" fill="#1E2A6B"/>
    <circle cx="78" cy="95" r="9" fill="#1E2A6B"/>
    <circle cx="45.5" cy="91.5" r="3" fill="#FFF6EC"/>
    <circle cx="81.5" cy="91.5" r="3" fill="#FFF6EC"/>

    <path d="M50 116 Q60 124, 70 116" stroke="#1E2A6B" stroke-width="4"
          fill="none" stroke-linecap="round"/>
  </g>
</svg>
