<svg width="680" height="380" viewBox="0 0 680 380" xmlns="http://www.w3.org/2000/svg">
<g transform="translate(90,60)">
<path d="M60 10 C 90 45, 105 70, 105 95 C 105 120, 85 140, 60 140 C 35 140, 15 120, 15 95 C 15 70, 30 45, 60 10 Z" fill="#1D9E75"/>
<circle cx="42" cy="95" r="10" fill="#ffffff"/>
<circle cx="45" cy="93" r="3" fill="#04342C"/>
<circle cx="78" cy="95" r="10" fill="#ffffff"/>
<circle cx="81" cy="93" r="3" fill="#04342C"/>
<path d="M50 115 Q60 122, 70 115" stroke="#04342C" stroke-width="2.5" fill="none" stroke-linecap="round"/>
<ellipse cx="30" cy="108" rx="7" ry="4" fill="#5DCAA5" opacity="0.6"/>
<ellipse cx="90" cy="108" rx="7" ry="4" fill="#5DCAA5" opacity="0.6"/>
<path d="M15 100 Q0 108, 8 122" stroke="#1D9E75" stroke-width="10" fill="none" stroke-linecap="round"/>
<path d="M105 100 Q120 108, 112 122" stroke="#1D9E75" stroke-width="10" fill="none" stroke-linecap="round"/>
</g>
<text x="150" y="230" text-anchor="middle" font-family="sans-serif" font-size="13" fill="#5F5E5A">neutral</text>

<g transform="translate(300,60)">
<path d="M60 10 C 90 45, 105 70, 105 95 C 105 120, 85 140, 60 140 C 35 140, 15 120, 15 95 C 15 70, 30 45, 60 10 Z" fill="#D85A30"/>
<circle cx="42" cy="93" r="10" fill="#ffffff"/>
<path d="M39 90 Q42 86, 45 90" stroke="#4A1B0C" stroke-width="2.5" fill="none" stroke-linecap="round"/>
<circle cx="78" cy="93" r="10" fill="#ffffff"/>
<path d="M75 90 Q78 86, 81 90" stroke="#4A1B0C" stroke-width="2.5" fill="none" stroke-linecap="round"/>
<path d="M48 112 Q60 128, 72 112" stroke="#4A1B0C" stroke-width="2.5" fill="none" stroke-linecap="round"/>
<ellipse cx="30" cy="106" rx="7" ry="4" fill="#F0997B" opacity="0.6"/>
<ellipse cx="90" cy="106" rx="7" ry="4" fill="#F0997B" opacity="0.6"/>
<path d="M15 100 Q-5 85, 5 70" stroke="#D85A30" stroke-width="10" fill="none" stroke-linecap="round"/>
<path d="M105 100 Q120 108, 112 122" stroke="#D85A30" stroke-width="10" fill="none" stroke-linecap="round"/>
</g>
<text x="360" y="230" text-anchor="middle" font-family="sans-serif" font-size="13" fill="#5F5E5A">waving hello</text>

<g transform="translate(510,60)">
<path d="M60 10 C 90 45, 105 70, 105 95 C 105 120, 85 140, 60 140 C 35 140, 15 120, 15 95 C 15 70, 30 45, 60 10 Z" fill="#BA7517"/>
<path d="M35 93 Q42 98, 49 93" stroke="#412402" stroke-width="2.5" fill="none" stroke-linecap="round"/>
<path d="M71 93 Q78 98, 85 93" stroke="#412402" stroke-width="2.5" fill="none" stroke-linecap="round"/>
<circle cx="60" cy="118" r="5" fill="#412402"/>
<path d="M15 100 Q0 108, 8 122" stroke="#BA7517" stroke-width="10" fill="none" stroke-linecap="round"/>
<path d="M105 100 Q120 108, 112 122" stroke="#BA7517" stroke-width="10" fill="none" stroke-linecap="round"/>
<text x="20" y="55" font-family="sans-serif" font-size="16" fill="#5F5E5A">z z</text>
</g>
<text x="570" y="230" text-anchor="middle" font-family="sans-serif" font-size="13" fill="#5F5E5A">sleepy / idle</text>
</svg>
